0
SECTION
2
HEADER
9
$INSUNITS
70
4
9
$ACADVER
1
AC1014
9
$HANDSEED
5
FFFF
0
ENDSEC
0
SECTION
2
TABLES
0
TABLE
2
VPORT
5
8
100
AcDbSymbolTable
0
ENDTAB
0
TABLE
2
LTYPE
5
5
100
AcDbSymbolTable
0
LTYPE
5
14
100
AcDbSymbolTableRecord
100
AcDbLinetypeTableRecord
2
BYBLOCK
70
0
0
LTYPE
5
15
100
AcDbSymbolTableRecord
100
AcDbLinetypeTableRecord
2
BYLAYER
70
0
0
LTYPE
5
16
100
AcDbSymbolTableRecord
100
AcDbLinetypeTableRecord
2
DASHED
70
0
3
Dashed __ __ __ __ __ __ __ __ __ __ __ __ __ _
72
65
73
2
40
0.75
49
0.5
74
0
49
-0.25
74
0
0
ENDTAB
0
TABLE
2
LAYER
5
2
100
AcDbSymbolTable
70
2
0
LAYER
5
50
100
AcDbSymbolTableRecord
100
AcDbLayerTableRecord
2
0
70
0
62
7
6
CONTINUOUS
0
ENDTAB
0
TABLE
2
STYLE
5
3
100
AcDbSymbolTable
70
1
0
STYLE
5
11
100
AcDbSymbolTableRecord
100
AcDbTextStyleTableRecord
2
STANDARD
70
0
0
ENDTAB
0
TABLE
2
VIEW
5
6
100
AcDbSymbolTable
70
0
0
ENDTAB
0
TABLE
2
UCS
5
7
100
AcDbSymbolTable
70
0
0
ENDTAB
0
TABLE
2
APPID
5
9
100
AcDbSymbolTable
70
2
0
APPID
5
12
100
AcDbSymbolTableRecord
100
AcDbRegAppTableRecord
2
ACAD
70
0
0
ENDTAB
0
TABLE
2
DIMSTYLE
5
A
100
AcDbSymbolTable
70
1
0
ENDTAB
0
TABLE
2
BLOCK_RECORD
5
1
100
AcDbSymbolTable
70
1
0
BLOCK_RECORD
5
1F
100
AcDbSymbolTableRecord
100
AcDbBlockTableRecord
2
*MODEL_SPACE
0
BLOCK_RECORD
5
1B
100
AcDbSymbolTableRecord
100
AcDbBlockTableRecord
2
*PAPER_SPACE
0
ENDTAB
0
ENDSEC
0
SECTION
2
BLOCKS
0
BLOCK
5
20
100
AcDbEntity
100
AcDbBlockBegin
2
*MODEL_SPACE
0
ENDBLK
5
21
100
AcDbEntity
100
AcDbBlockEnd
0
BLOCK
5
1C
100
AcDbEntity
100
AcDbBlockBegin
2
*PAPER_SPACE
0
ENDBLK
5
1D
100
AcDbEntity
100
AcDbBlockEnd
0
ENDSEC
0
SECTION
2
ENTITIES
0
CIRCLE
5
100
100
AcDbEntity
8
0
100
AcDbCircle
10
117.26849591691717
20
264.07423180393823
30
0
40
5.5000000000000071
210
0
220
-0
230
1
0
CIRCLE
5
101
100
AcDbEntity
8
0
100
AcDbCircle
10
217.26849591691717
20
264.07423180393818
30
0
40
5.5000000000000071
210
0
220
-0
230
1
0
CIRCLE
5
102
100
AcDbEntity
8
0
100
AcDbCircle
10
117.26849591691715
20
214.07423180393823
30
0
40
5.5000000000000071
210
0
220
-0
230
1
0
CIRCLE
5
103
100
AcDbEntity
8
0
100
AcDbCircle
10
217.26849591691717
20
214.07423180393818
30
0
40
5.5000000000000071
210
0
220
-0
230
1
0
CIRCLE
5
104
100
AcDbEntity
8
0
100
AcDbCircle
10
209.20769686486153
20
204.63558895312462
30
0
40
3.5000000000000009
210
0
220
-0
230
1
0
CIRCLE
5
105
100
AcDbEntity
8
0
100
AcDbCircle
10
127.20769686486148
20
204.63558895312468
30
0
40
3.499999999999996
210
0
220
-0
230
1
0
CIRCLE
5
106
100
AcDbEntity
8
0
100
AcDbCircle
10
182.30492785462269
20
240.2293084341951
30
0
40
3.499999999999996
210
0
220
-0
230
1
0
CIRCLE
5
107
100
AcDbEntity
8
0
100
AcDbCircle
10
105.30492785462258
20
222.7293084341951
30
0
40
3.5000000000000142
210
0
220
-0
230
1
0
CIRCLE
5
108
100
AcDbEntity
8
0
100
AcDbCircle
10
-49.439200947944343
20
174.43864285081355
30
0
40
3.5000000000000009
210
0
220
0
230
1
0
CIRCLE
5
109
100
AcDbEntity
8
0
100
AcDbCircle
10
32.560799052055671
20
174.43864285081355
30
0
40
3.499999999999996
210
0
220
0
230
1
0
CIRCLE
5
110
100
AcDbEntity
8
0
100
AcDbCircle
10
-49.439200947944343
20
106.93864285081354
30
0
40
3.5000000000000009
210
0
220
0
230
1
0
CIRCLE
5
111
100
AcDbEntity
8
0
100
AcDbCircle
10
65.5
20
112
30
0
40
5.5000000000000071
210
0
220
-0
230
1
0
CIRCLE
5
112
100
AcDbEntity
8
0
100
AcDbCircle
10
-34.500000000000014
20
112.00000000000004
30
0
40
5.5000000000000071
210
0
220
-0
230
1
0
CIRCLE
5
113
100
AcDbEntity
8
0
100
AcDbCircle
10
65.5
20
162
30
0
40
5.5000000000000071
210
0
220
-0
230
1
0
CIRCLE
5
114
100
AcDbEntity
8
0
100
AcDbCircle
10
-34.500000000000014
20
162.00000000000003
30
0
40
5.5000000000000071
210
0
220
-0
230
1
0
CIRCLE
5
115
100
AcDbEntity
8
0
100
AcDbCircle
10
-2.5364319377054478
20
107.34492336974313
30
0
40
3.499999999999996
210
0
220
-0
230
1
0
CIRCLE
5
116
100
AcDbEntity
8
0
100
AcDbCircle
10
-22.536431937705483
20
138.84492336974313
30
0
40
3.499999999999996
210
0
220
-0
230
1
0
CIRCLE
5
117
100
AcDbEntity
8
0
100
AcDbCircle
10
54.463568062294563
20
156.34492336974313
30
0
40
3.5000000000000142
210
0
220
-0
230
1
0
LINE
5
118
100
AcDbEntity
8
0
100
AcDbLine
10
-60
20
190
30
0
11
-60
21
100
31
0
0
LINE
5
119
100
AcDbEntity
8
0
100
AcDbLine
10
-60
20
100
30
0
11
235
21
100
31
0
0
LINE
5
120
100
AcDbEntity
8
0
100
AcDbLine
10
235
20
100
30
0
11
235
21
281
31
0
0
LINE
5
121
100
AcDbEntity
8
0
100
AcDbLine
10
235
20
281
30
0
11
95
21
281
31
0
0
LINE
5
122
100
AcDbEntity
8
0
100
AcDbLine
10
95
20
281
30
0
11
95
21
190
31
0
0
LINE
5
123
100
AcDbEntity
8
0
100
AcDbLine
10
95
20
190
30
0
11
-60
21
190
31
0
0
CIRCLE
5
124
100
AcDbEntity
8
0
100
AcDbCircle
10
117.26849591691717
20
264.07423180393823
30
0
40
5.5000000000000071
210
0
220
0
230
1
0
CIRCLE
5
125
100
AcDbEntity
8
0
100
AcDbCircle
10
217.26849591691717
20
264.07423180393818
30
0
40
5.5000000000000071
210
0
220
0
230
1
0
CIRCLE
5
126
100
AcDbEntity
8
0
100
AcDbCircle
10
117.26849591691715
20
214.07423180393823
30
0
40
5.5000000000000071
210
0
220
0
230
1
0
CIRCLE
5
127
100
AcDbEntity
8
0
100
AcDbCircle
10
217.26849591691717
20
214.07423180393818
30
0
40
5.5000000000000071
210
0
220
0
230
1
0
CIRCLE
5
128
100
AcDbEntity
8
0
100
AcDbCircle
10
209.20769686486153
20
204.63558895312462
30
0
40
3.5000000000000009
210
0
220
0
230
1
0
CIRCLE
5
129
100
AcDbEntity
8
0
100
AcDbCircle
10
127.20769686486148
20
204.63558895312468
30
0
40
3.4999999999999964
210
0
220
0
230
1
0
CIRCLE
5
130
100
AcDbEntity
8
0
100
AcDbCircle
10
182.30492785462269
20
240.2293084341951
30
0
40
3.4999999999999964
210
0
220
0
230
1
0
CIRCLE
5
131
100
AcDbEntity
8
0
100
AcDbCircle
10
105.30492785462258
20
222.7293084341951
30
0
40
3.5000000000000142
210
0
220
0
230
1
0
CIRCLE
5
132
100
AcDbEntity
8
0
100
AcDbCircle
10
-49.439200947944343
20
174.43864285081355
30
0
40
3.5000000000000009
210
0
220
0
230
1
0
CIRCLE
5
133
100
AcDbEntity
8
0
100
AcDbCircle
10
32.560799052055671
20
174.43864285081355
30
0
40
3.4999999999999964
210
0
220
0
230
1
0
CIRCLE
5
134
100
AcDbEntity
8
0
100
AcDbCircle
10
-49.439200947944343
20
106.93864285081354
30
0
40
3.5000000000000009
210
0
220
0
230
1
0
CIRCLE
5
135
100
AcDbEntity
8
0
100
AcDbCircle
10
65.5
20
112
30
0
40
5.5000000000000071
210
0
220
0
230
1
0
CIRCLE
5
136
100
AcDbEntity
8
0
100
AcDbCircle
10
-34.500000000000014
20
112.00000000000004
30
0
40
5.5000000000000071
210
0
220
0
230
1
0
CIRCLE
5
137
100
AcDbEntity
8
0
100
AcDbCircle
10
65.5
20
162
30
0
40
5.5000000000000071
210
0
220
0
230
1
0
CIRCLE
5
138
100
AcDbEntity
8
0
100
AcDbCircle
10
-34.500000000000014
20
162.00000000000003
30
0
40
5.5000000000000071
210
0
220
0
230
1
0
CIRCLE
5
139
100
AcDbEntity
8
0
100
AcDbCircle
10
-2.5364319377054478
20
107.34492336974313
30
0
40
3.4999999999999964
210
0
220
0
230
1
0
CIRCLE
5
140
100
AcDbEntity
8
0
100
AcDbCircle
10
-22.536431937705483
20
138.84492336974313
30
0
40
3.4999999999999964
210
0
220
0
230
1
0
CIRCLE
5
141
100
AcDbEntity
8
0
100
AcDbCircle
10
54.463568062294563
20
156.34492336974313
30
0
40
3.5000000000000142
210
0
220
0
230
1
0
LINE
5
142
100
AcDbEntity
8
0
100
AcDbLine
10
-60
20
190
30
0
11
95
21
190
31
0
0
LINE
5
143
100
AcDbEntity
8
0
100
AcDbLine
10
95
20
281
30
0
11
95
21
190
31
0
0
LINE
5
144
100
AcDbEntity
8
0
100
AcDbLine
10
235
20
281
30
0
11
95
21
281
31
0
0
LINE
5
145
100
AcDbEntity
8
0
100
AcDbLine
10
235
20
100
30
0
11
235
21
281
31
0
0
LINE
5
146
100
AcDbEntity
8
0
100
AcDbLine
10
-60
20
100
30
0
11
235
21
100
31
0
0
LINE
5
147
100
AcDbEntity
8
0
100
AcDbLine
10
-60
20
100
30
0
11
-60
21
190
31
0
0
LINE
5
148
100
AcDbEntity
8
0
100
AcDbLine
10
95
20
190
30
0
11
95
21
100
31
0
0
CIRCLE
5
149
100
AcDbEntity
8
0
100
AcDbCircle
10
-10.536431937705473
20
156.84492336974316
30
0
40
8.0000000000000071
210
0
220
-0
230
1
0
LWPOLYLINE
5
150
100
AcDbEntity
8
0
100
AcDbPolyline
90
2
70
1
43
0.0
10
29.114370337516444
20
106.32861898603491
42
1.0615711515890811
10
35.90999677683385
20
107.95494723451984
42
1.0615711515891757
0
LWPOLYLINE
5
151
100
AcDbEntity
8
0
100
AcDbPolyline
90
2
70
1
43
0.0
10
123.85849914008332
20
271.11928456941843
42
1.0615711515891684
10
130.65412557940081
20
272.74561281790307
42
1.0615711515890816
0
CIRCLE
5
152
100
AcDbEntity
8
0
100
AcDbCircle
10
170.30492785462263
20
222.22930843419508
30
0
40
8.0000000000000071
210
0
220
-0
230
1
0
LWPOLYLINE
5
153
100
AcDbEntity
8
0
100
AcDbPolyline
90
2
70
1
43
0.0
10
123.85849914008332
20
271.11928456941843
42
1.0615711515891695
10
130.65412557940078
20
272.74561281790307
42
1.0615711515890807
0
CIRCLE
5
154
100
AcDbEntity
8
0
100
AcDbCircle
10
170.30492785462263
20
222.22930843419508
30
0
40
8.0000000000000071
210
0
220
0
230
1
0
LWPOLYLINE
5
155
100
AcDbEntity
8
0
100
AcDbPolyline
90
2
70
1
43
0.0
10
29.114370337516444
20
106.32861898603491
42
1.0615711515890811
10
35.90999677683385
20
107.95494723451984
42
1.0615711515891699
0
CIRCLE
5
156
100
AcDbEntity
8
0
100
AcDbCircle
10
-10.536431937705473
20
156.84492336974316
30
0
40
8.0000000000000071
210
0
220
0
230
1
0
CIRCLE
5
157
100
AcDbEntity
8
0
100
AcDbCircle
10
162.30492785462263
20
271.7293084341951
30
0
40
3.499999999999996
210
0
220
-0
230
1
0
CIRCLE
5
158
100
AcDbEntity
8
0
100
AcDbCircle
10
209.20769686486153
20
272.13558895312468
30
0
40
3.5000000000000009
210
0
220
-0
230
1
0
CIRCLE
5
159
100
AcDbEntity
8
0
100
AcDbCircle
10
209.20769686486153
20
272.13558895312468
30
0
40
3.5000000000000009
210
0
220
0
230
1
0
CIRCLE
5
160
100
AcDbEntity
8
0
100
AcDbCircle
10
162.30492785462263
20
271.7293084341951
30
0
40
3.4999999999999964
210
0
220
0
230
1
0
ENDSEC
0
SECTION
2
OBJECTS
0
DICTIONARY
5
C
100
AcDbDictionary
3
ACAD_GROUP
350
D
3
ACAD_MLINESTYLE
350
17
0
DICTIONARY
5
D
100
AcDbDictionary
0
DICTIONARY
5
1A
330
C
100
AcDbDictionary
0
DICTIONARY
5
17
100
AcDbDictionary
0
ENDSEC
0
EOF
